<svg xmlns="http://www.w3.org/2000/svg" width="1100" height="170" viewBox="0 0 1100 170">
<style>.title{font:700 18px Arial, sans-serif;fill:#1f2933}.subtitle{font:12px Arial, sans-serif;fill:#52616b}.axis{font:11px Arial, sans-serif;fill:#52616b}.label{font:12px Arial, sans-serif;fill:#1f2933}.small{font:10px Arial, sans-serif;fill:#52616b}.grid{stroke:#e5e7eb;stroke-width:1}.rule{stroke:#9aa5b1;stroke-width:1}</style>
<rect width="100%" height="100%" fill="#ffffff"/>
<text x="40" y="34" class="title">Top Feature Frequencies</text>
<text x="40" y="56" class="subtitle">Top 1 features by review-level occurrence; color encodes feature origin.</text>
<line x1="260.0" y1="72" x2="260.0" y2="124" class="grid"/>
<text x="260.0" y="146" text-anchor="middle" class="axis">0</text>
<line x1="414.0" y1="72" x2="414.0" y2="124" class="grid"/>
<text x="414.0" y="146" text-anchor="middle" class="axis">0</text>
<line x1="568.0" y1="72" x2="568.0" y2="124" class="grid"/>
<text x="568.0" y="146" text-anchor="middle" class="axis">0</text>
<line x1="722.0" y1="72" x2="722.0" y2="124" class="grid"/>
<text x="722.0" y="146" text-anchor="middle" class="axis">1</text>
<line x1="876.0" y1="72" x2="876.0" y2="124" class="grid"/>
<text x="876.0" y="146" text-anchor="middle" class="axis">1</text>
<line x1="1030.0" y1="72" x2="1030.0" y2="124" class="grid"/>
<text x="1030.0" y="146" text-anchor="middle" class="axis">1</text>
<line x1="260" y1="124" x2="1030" y2="124" class="rule"/>
<text x="246" y="100" text-anchor="end" class="label">non-essential_feature</text>
<rect x="260" y="84" width="770.0" height="18" rx="2" fill="#2f6f9f"/>
<text x="1038.0" y="98" class="small">1 (100.0%)</text>
<rect x="260" y="156" width="12" height="12" fill="#2f6f9f"/>
<text x="278" y="166" class="small">initial catalog</text>
<rect x="392" y="156" width="12" height="12" fill="#6f8f2f"/>
<text x="410" y="166" class="small">dynamic discovery</text>
</svg>