<svg xmlns="http://www.w3.org/2000/svg" width="1100" height="702" viewBox="0 0 1100 702">
<style>.title{font:700 18px Arial, sans-serif;fill:#1f2933}.subtitle{font:12px Arial, sans-serif;fill:#52616b}.axis{font:11px Arial, sans-serif;fill:#52616b}.label{font:12px Arial, sans-serif;fill:#1f2933}.small{font:10px Arial, sans-serif;fill:#52616b}.grid{stroke:#e5e7eb;stroke-width:1}.rule{stroke:#9aa5b1;stroke-width:1}</style>
<rect width="100%" height="100%" fill="#ffffff"/>
<text x="40" y="34" class="title">Top Feature Frequencies</text>
<text x="40" y="56" class="subtitle">Top 20 features by review-level occurrence; color encodes feature origin.</text>
<line x1="260.0" y1="72" x2="260.0" y2="656" class="grid"/>
<text x="260.0" y="678" text-anchor="middle" class="axis">0</text>
<line x1="414.0" y1="72" x2="414.0" y2="656" class="grid"/>
<text x="414.0" y="678" text-anchor="middle" class="axis">19</text>
<line x1="568.0" y1="72" x2="568.0" y2="656" class="grid"/>
<text x="568.0" y="678" text-anchor="middle" class="axis">38</text>
<line x1="722.0" y1="72" x2="722.0" y2="656" class="grid"/>
<text x="722.0" y="678" text-anchor="middle" class="axis">56</text>
<line x1="876.0" y1="72" x2="876.0" y2="656" class="grid"/>
<text x="876.0" y="678" text-anchor="middle" class="axis">75</text>
<line x1="1030.0" y1="72" x2="1030.0" y2="656" class="grid"/>
<text x="1030.0" y="678" text-anchor="middle" class="axis">94</text>
<line x1="260" y1="656" x2="1030" y2="656" class="rule"/>
<text x="246" y="100" text-anchor="end" class="label">customer_satisfaction</text>
<rect x="260" y="84" width="770.0" height="18" rx="2" fill="#2f6f9f"/>
<text x="1038.0" y="98" class="small">94 (94.0%)</text>
<text x="246" y="128" text-anchor="end" class="label">product_satisfaction</text>
<rect x="260" y="112" width="761.8" height="18" rx="2" fill="#2f6f9f"/>
<text x="1029.8" y="126" class="small">93 (93.0%)</text>
<text x="246" y="156" text-anchor="end" class="label">performance_reliability</text>
<rect x="260" y="140" width="663.5" height="18" rx="2" fill="#2f6f9f"/>
<text x="931.5" y="154" class="small">81 (81.0%)</text>
<text x="246" y="184" text-anchor="end" class="label">display_quality</text>
<rect x="260" y="168" width="262.1" height="18" rx="2" fill="#2f6f9f"/>
<text x="530.1" y="182" class="small">32 (32.0%)</text>
<text x="246" y="212" text-anchor="end" class="label">performance_speed</text>
<rect x="260" y="196" width="221.2" height="18" rx="2" fill="#2f6f9f"/>
<text x="489.2" y="210" class="small">27 (27.0%)</text>
<text x="246" y="240" text-anchor="end" class="label">processing_speed</text>
<rect x="260" y="224" width="204.8" height="18" rx="2" fill="#2f6f9f"/>
<text x="472.8" y="238" class="small">25 (25.0%)</text>
<text x="246" y="268" text-anchor="end" class="label">ecosystem_compatibility</text>
<rect x="260" y="252" width="163.8" height="18" rx="2" fill="#2f6f9f"/>
<text x="431.8" y="266" class="small">20 (20.0%)</text>
<text x="246" y="296" text-anchor="end" class="label">price_competitiveness</text>
<rect x="260" y="280" width="139.3" height="18" rx="2" fill="#2f6f9f"/>
<text x="407.3" y="294" class="small">17 (17.0%)</text>
<text x="246" y="324" text-anchor="end" class="label">device_usage_frequency</text>
<rect x="260" y="308" width="122.9" height="18" rx="2" fill="#2f6f9f"/>
<text x="390.9" y="322" class="small">15 (15.0%)</text>
<text x="246" y="352" text-anchor="end" class="label">battery_life</text>
<rect x="260" y="336" width="90.1" height="18" rx="2" fill="#6f8f2f"/>
<text x="358.1" y="350" class="small">11 (11.0%)</text>
<text x="246" y="380" text-anchor="end" class="label">portability</text>
<rect x="260" y="364" width="65.5" height="18" rx="2" fill="#6f8f2f"/>
<text x="333.5" y="378" class="small">8 (8.0%)</text>
<text x="246" y="408" text-anchor="end" class="label">audio_quality</text>
<rect x="260" y="392" width="57.3" height="18" rx="2" fill="#6f8f2f"/>
<text x="325.3" y="406" class="small">7 (7.0%)</text>
<text x="246" y="436" text-anchor="end" class="label">data_transfer</text>
<rect x="260" y="420" width="57.3" height="18" rx="2" fill="#2f6f9f"/>
<text x="325.3" y="434" class="small">7 (7.0%)</text>
<text x="246" y="464" text-anchor="end" class="label">storage_capacity</text>
<rect x="260" y="448" width="49.1" height="18" rx="2" fill="#6f8f2f"/>
<text x="317.1" y="462" class="small">6 (6.0%)</text>
<text x="246" y="492" text-anchor="end" class="label">delivery_speed</text>
<rect x="260" y="476" width="41.0" height="18" rx="2" fill="#2f6f9f"/>
<text x="309.0" y="490" class="small">5 (5.0%)</text>
<text x="246" y="520" text-anchor="end" class="label">device_syncing</text>
<rect x="260" y="504" width="41.0" height="18" rx="2" fill="#2f6f9f"/>
<text x="309.0" y="518" class="small">5 (5.0%)</text>
<text x="246" y="548" text-anchor="end" class="label">accessory_compatibility</text>
<rect x="260" y="532" width="32.8" height="18" rx="2" fill="#6f8f2f"/>
<text x="300.8" y="546" class="small">4 (4.0%)</text>
<text x="246" y="576" text-anchor="end" class="label">usability</text>
<rect x="260" y="560" width="32.8" height="18" rx="2" fill="#6f8f2f"/>
<text x="300.8" y="574" class="small">4 (4.0%)</text>
<text x="246" y="604" text-anchor="end" class="label">charging_functionality</text>
<rect x="260" y="588" width="32.8" height="18" rx="2" fill="#2f6f9f"/>
<text x="300.8" y="602" class="small">4 (4.0%)</text>
<text x="246" y="632" text-anchor="end" class="label">multitasking_capability</text>
<rect x="260" y="616" width="32.8" height="18" rx="2" fill="#2f6f9f"/>
<text x="300.8" y="630" class="small">4 (4.0%)</text>
<rect x="260" y="688" width="12" height="12" fill="#2f6f9f"/>
<text x="278" y="698" class="small">initial catalog</text>
<rect x="392" y="688" width="12" height="12" fill="#6f8f2f"/>
<text x="410" y="698" class="small">dynamic discovery</text>
</svg>