<svg xmlns="http://www.w3.org/2000/svg" width="760" height="330" viewBox="0 0 760 330">
<style>.title{font:700 18px Arial, sans-serif;fill:#1f2933}.subtitle{font:12px Arial, sans-serif;fill:#52616b}.axis{font:11px Arial, sans-serif;fill:#52616b}.label{font:12px Arial, sans-serif;fill:#1f2933}.small{font:10px Arial, sans-serif;fill:#52616b}.grid{stroke:#e5e7eb;stroke-width:1}.rule{stroke:#9aa5b1;stroke-width:1}</style>
<rect width="100%" height="100%" fill="#ffffff"/>
<text x="40" y="34" class="title">Validation Iteration Distribution</text>
<text x="40" y="56" class="subtitle">Number of dynamic refinement rounds needed per review.</text>
<line x1="72" y1="258.0" x2="712" y2="258.0" class="grid"/>
<text x="60" y="262.0" text-anchor="end" class="axis">0</text>
<line x1="72" y1="215.5" x2="712" y2="215.5" class="grid"/>
<text x="60" y="219.5" text-anchor="end" class="axis">12</text>
<line x1="72" y1="173.0" x2="712" y2="173.0" class="grid"/>
<text x="60" y="177.0" text-anchor="end" class="axis">24</text>
<line x1="72" y1="130.5" x2="712" y2="130.5" class="grid"/>
<text x="60" y="134.5" text-anchor="end" class="axis">37</text>
<line x1="72" y1="88.0" x2="712" y2="88.0" class="grid"/>
<text x="60" y="92.0" text-anchor="end" class="axis">49</text>
<rect x="106" y="119.2" width="64" height="138.8" rx="2" fill="#2f6f9f"/>
<text x="138.0" y="111.2" text-anchor="middle" class="small">40</text>
<text x="138.0" y="282" text-anchor="middle" class="axis">1 iter</text>
<rect x="204" y="88.0" width="64" height="170.0" rx="2" fill="#2f6f9f"/>
<text x="236.0" y="80.0" text-anchor="middle" class="small">49</text>
<text x="236.0" y="282" text-anchor="middle" class="axis">2 iter</text>
<rect x="302" y="219.8" width="64" height="38.2" rx="2" fill="#2f6f9f"/>
<text x="334.0" y="211.8" text-anchor="middle" class="small">11</text>
<text x="334.0" y="282" text-anchor="middle" class="axis">3 iter</text>
</svg>