<svg xmlns="http://www.w3.org/2000/svg" width="1100" height="702" viewBox="0 0 1100 702">
<style>.title{font:700 18px Arial, sans-serif;fill:#1f2933}.subtitle{font:12px Arial, sans-serif;fill:#52616b}.axis{font:11px Arial, sans-serif;fill:#52616b}.label{font:12px Arial, sans-serif;fill:#1f2933}.small{font:10px Arial, sans-serif;fill:#52616b}.grid{stroke:#e5e7eb;stroke-width:1}.rule{stroke:#9aa5b1;stroke-width:1}</style>
<rect width="100%" height="100%" fill="#ffffff"/>
<text x="40" y="34" class="title">Most Relevant Features</text>
<text x="40" y="56" class="subtitle">Top 20 features by number of reviews that discuss them.</text>
<line x1="260.0" y1="72" x2="260.0" y2="656" class="grid"/>
<text x="260.0" y="678" text-anchor="middle" class="axis">0</text>
<line x1="414.0" y1="72" x2="414.0" y2="656" class="grid"/>
<text x="414.0" y="678" text-anchor="middle" class="axis">19</text>
<line x1="568.0" y1="72" x2="568.0" y2="656" class="grid"/>
<text x="568.0" y="678" text-anchor="middle" class="axis">38</text>
<line x1="722.0" y1="72" x2="722.0" y2="656" class="grid"/>
<text x="722.0" y="678" text-anchor="middle" class="axis">56</text>
<line x1="876.0" y1="72" x2="876.0" y2="656" class="grid"/>
<text x="876.0" y="678" text-anchor="middle" class="axis">75</text>
<line x1="1030.0" y1="72" x2="1030.0" y2="656" class="grid"/>
<text x="1030.0" y="678" text-anchor="middle" class="axis">94</text>
<line x1="260" y1="656" x2="1030" y2="656" class="rule"/>
<text x="246" y="100" text-anchor="end" class="label">general_satisfaction</text>
<rect x="260" y="84" width="770.0" height="18" rx="2" fill="#6f8f2f"/>
<text x="1038.0" y="98" class="small">94 reviews, avg score +0.61</text>
<text x="246" y="128" text-anchor="end" class="label">functionality</text>
<rect x="260" y="112" width="557.0" height="18" rx="2" fill="#6f8f2f"/>
<text x="825.0" y="126" class="small">68 reviews, avg score +0.48</text>
<text x="246" y="156" text-anchor="end" class="label">sound_quality</text>
<rect x="260" y="140" width="376.8" height="18" rx="2" fill="#6f8f2f"/>
<text x="644.8" y="154" class="small">46 reviews, avg score +0.53</text>
<text x="246" y="184" text-anchor="end" class="label">convenience</text>
<rect x="260" y="168" width="360.4" height="18" rx="2" fill="#6f8f2f"/>
<text x="628.4" y="182" class="small">44 reviews, avg score +0.46</text>
<text x="246" y="212" text-anchor="end" class="label">comfort</text>
<rect x="260" y="196" width="253.9" height="18" rx="2" fill="#6f8f2f"/>
<text x="521.9" y="210" class="small">31 reviews, avg score +0.17</text>
<text x="246" y="240" text-anchor="end" class="label">noise_cancellation</text>
<rect x="260" y="224" width="204.8" height="18" rx="2" fill="#6f8f2f"/>
<text x="472.8" y="238" class="small">25 reviews, avg score +0.53</text>
<text x="246" y="268" text-anchor="end" class="label">daily_usage</text>
<rect x="260" y="252" width="188.4" height="18" rx="2" fill="#6f8f2f"/>
<text x="456.4" y="266" class="small">23 reviews, avg score +0.03</text>
<text x="246" y="296" text-anchor="end" class="label">wireless_capability</text>
<rect x="260" y="280" width="172.0" height="18" rx="2" fill="#6f8f2f"/>
<text x="440.0" y="294" class="small">21 reviews, avg score +0.52</text>
<text x="246" y="324" text-anchor="end" class="label">build_quality</text>
<rect x="260" y="308" width="155.6" height="18" rx="2" fill="#6f8f2f"/>
<text x="423.6" y="322" class="small">19 reviews, avg score +0.07</text>
<text x="246" y="352" text-anchor="end" class="label">battery_life</text>
<rect x="260" y="336" width="147.4" height="18" rx="2" fill="#6f8f2f"/>
<text x="415.4" y="350" class="small">18 reviews, avg score +0.25</text>
<text x="246" y="380" text-anchor="end" class="label">device_integration</text>
<rect x="260" y="364" width="147.4" height="18" rx="2" fill="#6f8f2f"/>
<text x="415.4" y="378" class="small">18 reviews, avg score +0.58</text>
<text x="246" y="408" text-anchor="end" class="label">charging_ease</text>
<rect x="260" y="392" width="73.7" height="18" rx="2" fill="#6f8f2f"/>
<text x="341.7" y="406" class="small">9 reviews, avg score +0.33</text>
<text x="246" y="436" text-anchor="end" class="label">connection_stability</text>
<rect x="260" y="420" width="73.7" height="18" rx="2" fill="#6f8f2f"/>
<text x="341.7" y="434" class="small">9 reviews, avg score +0.74</text>
<text x="246" y="464" text-anchor="end" class="label">aesthetics</text>
<rect x="260" y="448" width="65.5" height="18" rx="2" fill="#7b8794"/>
<text x="333.5" y="462" class="small">8 reviews, avg score +0.00</text>
<text x="246" y="492" text-anchor="end" class="label">replaceable_parts</text>
<rect x="260" y="476" width="41.0" height="18" rx="2" fill="#c24949"/>
<text x="309.0" y="490" class="small">5 reviews, avg score -0.16</text>
<text x="246" y="520" text-anchor="end" class="label">microphone_quality</text>
<rect x="260" y="504" width="24.6" height="18" rx="2" fill="#6f8f2f"/>
<text x="292.6" y="518" class="small">3 reviews, avg score +0.17</text>
<text x="246" y="548" text-anchor="end" class="label">volume_limit</text>
<rect x="260" y="532" width="24.6" height="18" rx="2" fill="#6f8f2f"/>
<text x="292.6" y="546" class="small">3 reviews, avg score +0.17</text>
<text x="246" y="576" text-anchor="end" class="label">ambient_mode</text>
<rect x="260" y="560" width="16.4" height="18" rx="2" fill="#6f8f2f"/>
<text x="284.4" y="574" class="small">2 reviews, avg score +0.10</text>
<text x="246" y="604" text-anchor="end" class="label">alignment_ease</text>
<rect x="260" y="588" width="8.2" height="18" rx="2" fill="#6f8f2f"/>
<text x="276.2" y="602" class="small">1 reviews, avg score +1.00</text>
<text x="246" y="632" text-anchor="end" class="label">app_integration</text>
<rect x="260" y="616" width="8.2" height="18" rx="2" fill="#c24949"/>
<text x="276.2" y="630" class="small">1 reviews, avg score -1.00</text>
</svg>