<svg xmlns="http://www.w3.org/2000/svg" width="1100" height="198" viewBox="0 0 1100 198">
<style>.title{font:700 18px Arial, sans-serif;fill:#1f2933}.subtitle{font:12px Arial, sans-serif;fill:#52616b}.axis{font:11px Arial, sans-serif;fill:#52616b}.label{font:12px Arial, sans-serif;fill:#1f2933}.small{font:10px Arial, sans-serif;fill:#52616b}.grid{stroke:#e5e7eb;stroke-width:1}.rule{stroke:#9aa5b1;stroke-width:1}</style>
<rect width="100%" height="100%" fill="#ffffff"/>
<text x="40" y="34" class="title">Most Relevant Features</text>
<text x="40" y="56" class="subtitle">Top 2 features by number of reviews that discuss them.</text>
<line x1="260.0" y1="72" x2="260.0" y2="152" class="grid"/>
<text x="260.0" y="174" text-anchor="middle" class="axis">0</text>
<line x1="414.0" y1="72" x2="414.0" y2="152" class="grid"/>
<text x="414.0" y="174" text-anchor="middle" class="axis">0</text>
<line x1="568.0" y1="72" x2="568.0" y2="152" class="grid"/>
<text x="568.0" y="174" text-anchor="middle" class="axis">0</text>
<line x1="722.0" y1="72" x2="722.0" y2="152" class="grid"/>
<text x="722.0" y="174" text-anchor="middle" class="axis">1</text>
<line x1="876.0" y1="72" x2="876.0" y2="152" class="grid"/>
<text x="876.0" y="174" text-anchor="middle" class="axis">1</text>
<line x1="1030.0" y1="72" x2="1030.0" y2="152" class="grid"/>
<text x="1030.0" y="174" text-anchor="middle" class="axis">1</text>
<line x1="260" y1="152" x2="1030" y2="152" class="rule"/>
<text x="246" y="100" text-anchor="end" class="label">ease_of_use</text>
<rect x="260" y="84" width="0.0" height="18" rx="2" fill="#7b8794"/>
<text x="268.0" y="98" class="small">0 reviews, avg score +0.00</text>
<text x="246" y="128" text-anchor="end" class="label">sound_quality</text>
<rect x="260" y="112" width="0.0" height="18" rx="2" fill="#7b8794"/>
<text x="268.0" y="126" class="small">0 reviews, avg score +0.00</text>
</svg>